<mxfile host="app.diagrams.net" modified="2020-08-06T01:51:27.821Z" agent="5.0 (Windows NT 10.0; Win64; x64) AppleWebKit/537.36 (KHTML, like Gecko) Chrome/84.0.4147.105 Safari/537.36" etag="KM-vDYT4dNHpKonFXl0k" version="13.5.9" type="github">
  <diagram id="kgpKYQtTHZ0yAKxKKP6v" name="Page-1">
    <mxGraphModel dx="2414" dy="750" grid="1" gridSize="10" guides="1" tooltips="1" connect="1" arrows="1" fold="1" page="1" pageScale="1" pageWidth="850" pageHeight="1100" math="0" shadow="0">
      <root>
        <mxCell id="0" />
        <mxCell id="1" parent="0" />
        <mxCell id="3nuBFxr9cyL0pnOWT2aG-1" value="Inteface: Boundary()" style="shape=umlLifeline;perimeter=lifelinePerimeter;container=1;collapsible=0;recursiveResize=0;rounded=0;shadow=0;strokeWidth=1;" parent="1" vertex="1">
          <mxGeometry x="130" y="80" width="140" height="720" as="geometry" />
        </mxCell>
        <mxCell id="3nuBFxr9cyL0pnOWT2aG-5" value="Controlador: Control()" style="shape=umlLifeline;perimeter=lifelinePerimeter;container=1;collapsible=0;recursiveResize=0;rounded=0;shadow=0;strokeWidth=1;" parent="1" vertex="1">
          <mxGeometry x="325" y="80" width="135" height="720" as="geometry" />
        </mxCell>
        <mxCell id="fcYiXY_xP2DARM-IJb6x-1" value="Cliente : Actor 1" style="shape=umlActor;verticalLabelPosition=bottom;verticalAlign=top;html=1;outlineConnect=0;" vertex="1" parent="1">
          <mxGeometry x="-230" y="80" width="30" height="60" as="geometry" />
        </mxCell>
        <mxCell id="fcYiXY_xP2DARM-IJb6x-5" value="Secretaria : Actor 2" style="shape=umlActor;verticalLabelPosition=bottom;verticalAlign=top;html=1;outlineConnect=0;" vertex="1" parent="1">
          <mxGeometry x="-20" y="60" width="30" height="60" as="geometry" />
        </mxCell>
        <mxCell id="fcYiXY_xP2DARM-IJb6x-8" value="Cliente: Entity1" style="shape=umlLifeline;perimeter=lifelinePerimeter;container=1;collapsible=0;recursiveResize=0;rounded=0;shadow=0;strokeWidth=1;" vertex="1" parent="1">
          <mxGeometry x="500" y="80" width="135" height="720" as="geometry" />
        </mxCell>
        <mxCell id="fcYiXY_xP2DARM-IJb6x-10" value="Dentista : Entity2" style="shape=umlLifeline;perimeter=lifelinePerimeter;container=1;collapsible=0;recursiveResize=0;rounded=0;shadow=0;strokeWidth=1;" vertex="1" parent="1">
          <mxGeometry x="680" y="80" width="135" height="720" as="geometry" />
        </mxCell>
        <mxCell id="fcYiXY_xP2DARM-IJb6x-14" value="" style="endArrow=none;dashed=1;html=1;dashPattern=1 3;strokeWidth=2;" edge="1" parent="1" target="fcYiXY_xP2DARM-IJb6x-5">
          <mxGeometry width="50" height="50" relative="1" as="geometry">
            <mxPoint y="800" as="sourcePoint" />
            <mxPoint x="60" y="210" as="targetPoint" />
          </mxGeometry>
        </mxCell>
        <mxCell id="fcYiXY_xP2DARM-IJb6x-15" value="" style="endArrow=none;dashed=1;html=1;dashPattern=1 3;strokeWidth=2;" edge="1" parent="1" target="fcYiXY_xP2DARM-IJb6x-1">
          <mxGeometry width="50" height="50" relative="1" as="geometry">
            <mxPoint x="-220" y="1090" as="sourcePoint" />
            <mxPoint x="60" y="210" as="targetPoint" />
          </mxGeometry>
        </mxCell>
        <mxCell id="fcYiXY_xP2DARM-IJb6x-16" value="" style="endArrow=classic;html=1;" edge="1" parent="1">
          <mxGeometry width="50" height="50" relative="1" as="geometry">
            <mxPoint x="-210" y="200" as="sourcePoint" />
            <mxPoint x="20" y="200" as="targetPoint" />
          </mxGeometry>
        </mxCell>
        <mxCell id="fcYiXY_xP2DARM-IJb6x-17" value="1:getCPF(cpf)" style="text;html=1;align=center;verticalAlign=middle;resizable=0;points=[];autosize=1;" vertex="1" parent="1">
          <mxGeometry x="-145" y="180" width="90" height="20" as="geometry" />
        </mxCell>
        <mxCell id="fcYiXY_xP2DARM-IJb6x-19" value="1.1:getCPF&lt;span style=&quot;text-align: left&quot;&gt;(cpf)&lt;/span&gt;" style="text;html=1;align=center;verticalAlign=middle;resizable=0;points=[];autosize=1;spacing=6;" vertex="1" parent="1">
          <mxGeometry x="60" y="190" width="110" height="30" as="geometry" />
        </mxCell>
        <mxCell id="fcYiXY_xP2DARM-IJb6x-20" value="" style="endArrow=classic;html=1;" edge="1" parent="1" target="3nuBFxr9cyL0pnOWT2aG-1">
          <mxGeometry width="50" height="50" relative="1" as="geometry">
            <mxPoint x="30" y="215" as="sourcePoint" />
            <mxPoint x="203.3599999999999" y="216.79999999999995" as="targetPoint" />
          </mxGeometry>
        </mxCell>
        <mxCell id="fcYiXY_xP2DARM-IJb6x-21" value="loop: CPFVÃ¡lido [Guard" style="shape=umlFrame;whiteSpace=wrap;html=1;width=140;height=30;" vertex="1" parent="1">
          <mxGeometry x="130" y="220" width="160" height="60" as="geometry" />
        </mxCell>
        <mxCell id="fcYiXY_xP2DARM-IJb6x-22" value="" style="endArrow=classic;html=1;exitX=0.913;exitY=1;exitDx=0;exitDy=0;exitPerimeter=0;" edge="1" parent="1" source="fcYiXY_xP2DARM-IJb6x-21">
          <mxGeometry width="50" height="50" relative="1" as="geometry">
            <mxPoint x="150" y="270" as="sourcePoint" />
            <mxPoint x="392" y="280" as="targetPoint" />
          </mxGeometry>
        </mxCell>
        <mxCell id="fcYiXY_xP2DARM-IJb6x-23" value="1.1.1:getCPF(cpf)" style="text;html=1;align=center;verticalAlign=middle;resizable=0;points=[];autosize=1;" vertex="1" parent="1">
          <mxGeometry x="255" y="260" width="110" height="20" as="geometry" />
        </mxCell>
        <mxCell id="fcYiXY_xP2DARM-IJb6x-24" value="" style="endArrow=classic;html=1;exitX=0.496;exitY=0.306;exitDx=0;exitDy=0;exitPerimeter=0;" edge="1" parent="1" source="3nuBFxr9cyL0pnOWT2aG-5" target="fcYiXY_xP2DARM-IJb6x-8">
          <mxGeometry width="50" height="50" relative="1" as="geometry">
            <mxPoint x="360" y="270" as="sourcePoint" />
            <mxPoint x="410" y="220" as="targetPoint" />
            <Array as="points">
              <mxPoint x="460" y="300" />
            </Array>
          </mxGeometry>
        </mxCell>
        <mxCell id="fcYiXY_xP2DARM-IJb6x-25" value="1.1.1.1:VerificarCliente(CPF)" style="text;html=1;align=center;verticalAlign=middle;resizable=0;points=[];autosize=1;" vertex="1" parent="1">
          <mxGeometry x="400" y="270" width="170" height="20" as="geometry" />
        </mxCell>
        <mxCell id="fcYiXY_xP2DARM-IJb6x-27" value="" style="endArrow=classic;html=1;exitX=0.498;exitY=0.309;exitDx=0;exitDy=0;exitPerimeter=0;dashed=1;strokeWidth=2;" edge="1" parent="1" source="fcYiXY_xP2DARM-IJb6x-8" target="3nuBFxr9cyL0pnOWT2aG-5">
          <mxGeometry width="50" height="50" relative="1" as="geometry">
            <mxPoint x="330" y="370" as="sourcePoint" />
            <mxPoint x="380" y="320" as="targetPoint" />
            <Array as="points">
              <mxPoint x="590" y="302" />
              <mxPoint x="590" y="340" />
              <mxPoint x="590" y="365" />
              <mxPoint x="550" y="365" />
            </Array>
          </mxGeometry>
        </mxCell>
        <mxCell id="fcYiXY_xP2DARM-IJb6x-28" value="" style="endArrow=classic;html=1;dashed=1;strokeWidth=2;" edge="1" parent="1" target="3nuBFxr9cyL0pnOWT2aG-1">
          <mxGeometry width="50" height="50" relative="1" as="geometry">
            <mxPoint x="392" y="375" as="sourcePoint" />
            <mxPoint x="401.82352941176487" y="375" as="targetPoint" />
            <Array as="points">
              <mxPoint x="350" y="375" />
            </Array>
          </mxGeometry>
        </mxCell>
        <mxCell id="fcYiXY_xP2DARM-IJb6x-29" value="" style="endArrow=classic;html=1;dashed=1;strokeWidth=2;" edge="1" parent="1">
          <mxGeometry width="50" height="50" relative="1" as="geometry">
            <mxPoint x="192.68" y="390" as="sourcePoint" />
            <mxPoint x="0.003529411764645829" y="390" as="targetPoint" />
            <Array as="points">
              <mxPoint x="150.68" y="390" />
            </Array>
          </mxGeometry>
        </mxCell>
        <mxCell id="fcYiXY_xP2DARM-IJb6x-30" value="Cliente cadastrado" style="text;html=1;align=center;verticalAlign=middle;resizable=0;points=[];autosize=1;" vertex="1" parent="1">
          <mxGeometry x="420" y="330" width="120" height="20" as="geometry" />
        </mxCell>
        <mxCell id="fcYiXY_xP2DARM-IJb6x-31" value="Cliente cadastrado" style="text;html=1;align=center;verticalAlign=middle;resizable=0;points=[];autosize=1;" vertex="1" parent="1">
          <mxGeometry x="240" y="350" width="120" height="20" as="geometry" />
        </mxCell>
        <mxCell id="fcYiXY_xP2DARM-IJb6x-32" value="Cliente cadastrado" style="text;html=1;align=center;verticalAlign=middle;resizable=0;points=[];autosize=1;" vertex="1" parent="1">
          <mxGeometry x="40" y="370" width="120" height="20" as="geometry" />
        </mxCell>
        <mxCell id="fcYiXY_xP2DARM-IJb6x-33" value="opt" style="shape=umlFrame;whiteSpace=wrap;html=1;" vertex="1" parent="1">
          <mxGeometry x="-30" y="310" width="635" height="200" as="geometry" />
        </mxCell>
        <mxCell id="fcYiXY_xP2DARM-IJb6x-34" value="[cadastro = false]" style="text;html=1;align=center;verticalAlign=middle;resizable=0;points=[];autosize=1;" vertex="1" parent="1">
          <mxGeometry x="60" y="330" width="110" height="20" as="geometry" />
        </mxCell>
        <mxCell id="fcYiXY_xP2DARM-IJb6x-35" value="" style="endArrow=classic;html=1;dashed=1;strokeWidth=2;exitX=0.499;exitY=0.305;exitDx=0;exitDy=0;exitPerimeter=0;" edge="1" parent="1" source="fcYiXY_xP2DARM-IJb6x-8" target="3nuBFxr9cyL0pnOWT2aG-5">
          <mxGeometry width="50" height="50" relative="1" as="geometry">
            <mxPoint x="430" y="380" as="sourcePoint" />
            <mxPoint x="480" y="330" as="targetPoint" />
            <Array as="points">
              <mxPoint x="590" y="300" />
              <mxPoint x="590" y="546" />
            </Array>
          </mxGeometry>
        </mxCell>
        <mxCell id="fcYiXY_xP2DARM-IJb6x-38" value="" style="endArrow=classic;html=1;exitX=0.498;exitY=0.309;exitDx=0;exitDy=0;exitPerimeter=0;dashed=1;strokeWidth=2;entryX=0.51;entryY=0.696;entryDx=0;entryDy=0;entryPerimeter=0;" edge="1" parent="1" target="3nuBFxr9cyL0pnOWT2aG-1">
          <mxGeometry width="50" height="50" relative="1" as="geometry">
            <mxPoint x="387.8099999999999" y="580" as="sourcePoint" />
            <mxPoint x="201" y="575" as="targetPoint" />
            <Array as="points" />
          </mxGeometry>
        </mxCell>
        <mxCell id="fcYiXY_xP2DARM-IJb6x-39" value="" style="endArrow=classic;html=1;exitX=0.498;exitY=0.309;exitDx=0;exitDy=0;exitPerimeter=0;dashed=1;strokeWidth=2;" edge="1" parent="1">
          <mxGeometry width="50" height="50" relative="1" as="geometry">
            <mxPoint x="195.6199999999999" y="590" as="sourcePoint" />
            <mxPoint y="590" as="targetPoint" />
            <Array as="points" />
          </mxGeometry>
        </mxCell>
        <mxCell id="fcYiXY_xP2DARM-IJb6x-40" value="nomeCliente" style="text;html=1;align=center;verticalAlign=middle;resizable=0;points=[];autosize=1;" vertex="1" parent="1">
          <mxGeometry x="440" y="530" width="80" height="20" as="geometry" />
        </mxCell>
        <mxCell id="fcYiXY_xP2DARM-IJb6x-41" value="nomeCliente" style="text;html=1;align=center;verticalAlign=middle;resizable=0;points=[];autosize=1;" vertex="1" parent="1">
          <mxGeometry x="260" y="560" width="80" height="20" as="geometry" />
        </mxCell>
        <mxCell id="fcYiXY_xP2DARM-IJb6x-42" value="nomeCliente" style="text;html=1;align=center;verticalAlign=middle;resizable=0;points=[];autosize=1;" vertex="1" parent="1">
          <mxGeometry x="75" y="570" width="80" height="20" as="geometry" />
        </mxCell>
        <mxCell id="fcYiXY_xP2DARM-IJb6x-43" value="" style="endArrow=classic;html=1;strokeWidth=1;" edge="1" parent="1" target="3nuBFxr9cyL0pnOWT2aG-1">
          <mxGeometry width="50" height="50" relative="1" as="geometry">
            <mxPoint y="650" as="sourcePoint" />
            <mxPoint x="240" y="460" as="targetPoint" />
          </mxGeometry>
        </mxCell>
        <mxCell id="fcYiXY_xP2DARM-IJb6x-44" value="2:getCRO(cro)" style="text;html=1;align=center;verticalAlign=middle;resizable=0;points=[];autosize=1;" vertex="1" parent="1">
          <mxGeometry x="55" y="630" width="90" height="20" as="geometry" />
        </mxCell>
        <mxCell id="fcYiXY_xP2DARM-IJb6x-45" value="" style="endArrow=classic;html=1;strokeWidth=1;" edge="1" parent="1" target="3nuBFxr9cyL0pnOWT2aG-5">
          <mxGeometry width="50" height="50" relative="1" as="geometry">
            <mxPoint x="200" y="670" as="sourcePoint" />
            <mxPoint x="250" y="620" as="targetPoint" />
          </mxGeometry>
        </mxCell>
        <mxCell id="fcYiXY_xP2DARM-IJb6x-46" value="2.1:getCRO(cro)" style="text;html=1;align=center;verticalAlign=middle;resizable=0;points=[];autosize=1;" vertex="1" parent="1">
          <mxGeometry x="240" y="650" width="100" height="20" as="geometry" />
        </mxCell>
        <mxCell id="fcYiXY_xP2DARM-IJb6x-47" value="" style="endArrow=classic;html=1;strokeWidth=1;exitX=0.526;exitY=0.835;exitDx=0;exitDy=0;exitPerimeter=0;" edge="1" parent="1" source="3nuBFxr9cyL0pnOWT2aG-5" target="fcYiXY_xP2DARM-IJb6x-10">
          <mxGeometry width="50" height="50" relative="1" as="geometry">
            <mxPoint x="430" y="680" as="sourcePoint" />
            <mxPoint x="710" y="670" as="targetPoint" />
            <Array as="points">
              <mxPoint x="560" y="681" />
              <mxPoint x="570" y="670" />
              <mxPoint x="580" y="681" />
            </Array>
          </mxGeometry>
        </mxCell>
        <mxCell id="fcYiXY_xP2DARM-IJb6x-48" value="2.1.1:getCRO(cro)" style="text;html=1;strokeColor=none;fillColor=none;align=center;verticalAlign=middle;whiteSpace=wrap;rounded=0;" vertex="1" parent="1">
          <mxGeometry x="635" y="660" width="40" height="20" as="geometry" />
        </mxCell>
        <mxCell id="fcYiXY_xP2DARM-IJb6x-50" value="" style="endArrow=classic;html=1;dashed=1;strokeWidth=2;exitX=0.499;exitY=0.305;exitDx=0;exitDy=0;exitPerimeter=0;" edge="1" parent="1" target="fcYiXY_xP2DARM-IJb6x-8">
          <mxGeometry width="50" height="50" relative="1" as="geometry">
            <mxPoint x="770.0049999999998" y="680" as="sourcePoint" />
            <mxPoint x="773.245" y="926.24" as="targetPoint" />
            <Array as="points">
              <mxPoint x="792.64" y="680.4" />
              <mxPoint x="793" y="730" />
            </Array>
          </mxGeometry>
        </mxCell>
        <mxCell id="fcYiXY_xP2DARM-IJb6x-51" value="" style="endArrow=classic;html=1;exitX=0.498;exitY=0.309;exitDx=0;exitDy=0;exitPerimeter=0;dashed=1;strokeWidth=2;" edge="1" parent="1">
          <mxGeometry width="50" height="50" relative="1" as="geometry">
            <mxPoint x="572.8099999999998" y="740" as="sourcePoint" />
            <mxPoint x="397.19" y="740" as="targetPoint" />
            <Array as="points" />
          </mxGeometry>
        </mxCell>
        <mxCell id="fcYiXY_xP2DARM-IJb6x-52" value="horarios" style="text;html=1;align=center;verticalAlign=middle;resizable=0;points=[];autosize=1;" vertex="1" parent="1">
          <mxGeometry x="615" y="710" width="60" height="20" as="geometry" />
        </mxCell>
        <mxCell id="fcYiXY_xP2DARM-IJb6x-53" value="horarios" style="text;html=1;align=center;verticalAlign=middle;resizable=0;points=[];autosize=1;" vertex="1" parent="1">
          <mxGeometry x="450" y="720" width="60" height="20" as="geometry" />
        </mxCell>
        <mxCell id="fcYiXY_xP2DARM-IJb6x-54" value="" style="endArrow=classic;html=1;exitX=0.498;exitY=0.309;exitDx=0;exitDy=0;exitPerimeter=0;dashed=1;strokeWidth=2;" edge="1" parent="1">
          <mxGeometry width="50" height="50" relative="1" as="geometry">
            <mxPoint x="387.80999999999995" y="760" as="sourcePoint" />
            <mxPoint x="212.19000000000005" y="760" as="targetPoint" />
            <Array as="points" />
          </mxGeometry>
        </mxCell>
        <mxCell id="fcYiXY_xP2DARM-IJb6x-55" value="horarios" style="text;html=1;align=center;verticalAlign=middle;resizable=0;points=[];autosize=1;" vertex="1" parent="1">
          <mxGeometry x="270" y="740" width="60" height="20" as="geometry" />
        </mxCell>
        <mxCell id="fcYiXY_xP2DARM-IJb6x-56" value="" style="endArrow=none;dashed=1;html=1;dashPattern=1 3;strokeWidth=2;" edge="1" parent="1">
          <mxGeometry width="50" height="50" relative="1" as="geometry">
            <mxPoint x="200" y="1100.666748046875" as="sourcePoint" />
            <mxPoint x="199.5" y="800" as="targetPoint" />
          </mxGeometry>
        </mxCell>
        <mxCell id="fcYiXY_xP2DARM-IJb6x-57" value="" style="endArrow=none;dashed=1;html=1;dashPattern=1 3;strokeWidth=2;" edge="1" parent="1">
          <mxGeometry width="50" height="50" relative="1" as="geometry">
            <mxPoint y="1100" as="sourcePoint" />
            <mxPoint y="800" as="targetPoint" />
          </mxGeometry>
        </mxCell>
        <mxCell id="fcYiXY_xP2DARM-IJb6x-58" value="" style="endArrow=none;dashed=1;html=1;dashPattern=1 3;strokeWidth=2;" edge="1" parent="1">
          <mxGeometry width="50" height="50" relative="1" as="geometry">
            <mxPoint x="390" y="1100" as="sourcePoint" />
            <mxPoint x="390" y="800" as="targetPoint" />
          </mxGeometry>
        </mxCell>
        <mxCell id="fcYiXY_xP2DARM-IJb6x-59" value="" style="endArrow=none;dashed=1;html=1;dashPattern=1 3;strokeWidth=2;entryX=0.519;entryY=1;entryDx=0;entryDy=0;entryPerimeter=0;" edge="1" parent="1" target="fcYiXY_xP2DARM-IJb6x-8">
          <mxGeometry width="50" height="50" relative="1" as="geometry">
            <mxPoint x="570" y="1110" as="sourcePoint" />
            <mxPoint x="610" y="890" as="targetPoint" />
          </mxGeometry>
        </mxCell>
        <mxCell id="fcYiXY_xP2DARM-IJb6x-60" value="" style="endArrow=none;dashed=1;html=1;dashPattern=1 3;strokeWidth=2;entryX=0.484;entryY=1.001;entryDx=0;entryDy=0;entryPerimeter=0;" edge="1" parent="1" target="fcYiXY_xP2DARM-IJb6x-10">
          <mxGeometry width="50" height="50" relative="1" as="geometry">
            <mxPoint x="745" y="1110" as="sourcePoint" />
            <mxPoint x="590" y="890" as="targetPoint" />
          </mxGeometry>
        </mxCell>
        <mxCell id="fcYiXY_xP2DARM-IJb6x-61" value="" style="endArrow=classic;html=1;strokeWidth=1;" edge="1" parent="1">
          <mxGeometry width="50" height="50" relative="1" as="geometry">
            <mxPoint x="-220" y="810" as="sourcePoint" />
            <mxPoint y="810" as="targetPoint" />
          </mxGeometry>
        </mxCell>
        <mxCell id="fcYiXY_xP2DARM-IJb6x-62" value="3.2.agendarConsulta(consulta)" style="text;html=1;align=center;verticalAlign=middle;resizable=0;points=[];autosize=1;" vertex="1" parent="1">
          <mxGeometry x="-205" y="780" width="180" height="20" as="geometry" />
        </mxCell>
        <mxCell id="fcYiXY_xP2DARM-IJb6x-63" value="" style="endArrow=classic;html=1;strokeWidth=1;" edge="1" parent="1">
          <mxGeometry width="50" height="50" relative="1" as="geometry">
            <mxPoint y="830" as="sourcePoint" />
            <mxPoint x="190" y="830" as="targetPoint" />
          </mxGeometry>
        </mxCell>
        <mxCell id="fcYiXY_xP2DARM-IJb6x-66" value="" style="endArrow=classic;html=1;strokeWidth=1;" edge="1" parent="1">
          <mxGeometry width="50" height="50" relative="1" as="geometry">
            <mxPoint x="205" y="850" as="sourcePoint" />
            <mxPoint x="395" y="850" as="targetPoint" />
          </mxGeometry>
        </mxCell>
        <mxCell id="fcYiXY_xP2DARM-IJb6x-67" value="3.2.1.agendarConsulta(consulta)" style="text;html=1;align=center;verticalAlign=middle;resizable=0;points=[];autosize=1;" vertex="1" parent="1">
          <mxGeometry x="5" y="810" width="190" height="20" as="geometry" />
        </mxCell>
        <mxCell id="fcYiXY_xP2DARM-IJb6x-68" value="3.2.1.1.agendarConsulta(consulta)" style="text;html=1;align=center;verticalAlign=middle;resizable=0;points=[];autosize=1;" vertex="1" parent="1">
          <mxGeometry x="200" y="820" width="200" height="20" as="geometry" />
        </mxCell>
        <mxCell id="fcYiXY_xP2DARM-IJb6x-69" value="3.2.1.1.1.agendarConsulta(consulta)" style="text;html=1;align=center;verticalAlign=middle;resizable=0;points=[];autosize=1;" vertex="1" parent="1">
          <mxGeometry x="380" y="850" width="210" height="20" as="geometry" />
        </mxCell>
        <mxCell id="fcYiXY_xP2DARM-IJb6x-70" value="" style="endArrow=classic;html=1;strokeWidth=1;" edge="1" parent="1">
          <mxGeometry width="50" height="50" relative="1" as="geometry">
            <mxPoint x="390.0000000000002" y="870" as="sourcePoint" />
            <mxPoint x="570" y="870" as="targetPoint" />
          </mxGeometry>
        </mxCell>
        <mxCell id="fcYiXY_xP2DARM-IJb6x-71" value="" style="endArrow=classic;html=1;strokeWidth=1;" edge="1" parent="1">
          <mxGeometry width="50" height="50" relative="1" as="geometry">
            <mxPoint x="570.0000000000002" y="910" as="sourcePoint" />
            <mxPoint x="740" y="910" as="targetPoint" />
          </mxGeometry>
        </mxCell>
        <mxCell id="fcYiXY_xP2DARM-IJb6x-72" value="3.2.1.1.1.1.agendarConsulta(consulta)" style="text;html=1;align=center;verticalAlign=middle;resizable=0;points=[];autosize=1;" vertex="1" parent="1">
          <mxGeometry x="545" y="890" width="220" height="20" as="geometry" />
        </mxCell>
        <mxCell id="fcYiXY_xP2DARM-IJb6x-73" value="" style="endArrow=classic;html=1;dashed=1;strokeWidth=2;" edge="1" parent="1" source="fcYiXY_xP2DARM-IJb6x-72">
          <mxGeometry width="50" height="50" relative="1" as="geometry">
            <mxPoint x="772.8349999999997" y="910" as="sourcePoint" />
            <mxPoint x="570" y="950" as="targetPoint" />
            <Array as="points">
              <mxPoint x="795" y="900" />
              <mxPoint x="795" y="950" />
              <mxPoint x="650" y="950" />
            </Array>
          </mxGeometry>
        </mxCell>
        <mxCell id="fcYiXY_xP2DARM-IJb6x-74" value="" style="endArrow=classic;html=1;dashed=1;strokeWidth=2;" edge="1" parent="1">
          <mxGeometry width="50" height="50" relative="1" as="geometry">
            <mxPoint x="575" y="875" as="sourcePoint" />
            <mxPoint x="390" y="970" as="targetPoint" />
            <Array as="points">
              <mxPoint x="610" y="875" />
              <mxPoint x="610" y="970" />
            </Array>
          </mxGeometry>
        </mxCell>
        <mxCell id="fcYiXY_xP2DARM-IJb6x-75" value="" style="endArrow=classic;html=1;exitX=0.498;exitY=0.309;exitDx=0;exitDy=0;exitPerimeter=0;dashed=1;strokeWidth=2;" edge="1" parent="1">
          <mxGeometry width="50" height="50" relative="1" as="geometry">
            <mxPoint x="387.80999999999995" y="990" as="sourcePoint" />
            <mxPoint x="200" y="990" as="targetPoint" />
            <Array as="points" />
          </mxGeometry>
        </mxCell>
        <mxCell id="fcYiXY_xP2DARM-IJb6x-76" value="" style="endArrow=classic;html=1;exitX=0.498;exitY=0.309;exitDx=0;exitDy=0;exitPerimeter=0;dashed=1;strokeWidth=2;" edge="1" parent="1">
          <mxGeometry width="50" height="50" relative="1" as="geometry">
            <mxPoint x="195.61999999999995" y="1010" as="sourcePoint" />
            <mxPoint y="1010" as="targetPoint" />
            <Array as="points" />
          </mxGeometry>
        </mxCell>
        <mxCell id="fcYiXY_xP2DARM-IJb6x-77" value="consultaAgendada = true" style="text;html=1;align=center;verticalAlign=middle;resizable=0;points=[];autosize=1;" vertex="1" parent="1">
          <mxGeometry x="605" y="930" width="150" height="20" as="geometry" />
        </mxCell>
        <mxCell id="fcYiXY_xP2DARM-IJb6x-78" value="consultaAgendada = true" style="text;html=1;align=center;verticalAlign=middle;resizable=0;points=[];autosize=1;" vertex="1" parent="1">
          <mxGeometry x="420" y="950" width="150" height="20" as="geometry" />
        </mxCell>
        <mxCell id="fcYiXY_xP2DARM-IJb6x-79" value="consultaAgendada = true" style="text;html=1;align=center;verticalAlign=middle;resizable=0;points=[];autosize=1;" vertex="1" parent="1">
          <mxGeometry x="225" y="970" width="150" height="20" as="geometry" />
        </mxCell>
        <mxCell id="fcYiXY_xP2DARM-IJb6x-80" value="consultaAgendada = true" style="text;html=1;align=center;verticalAlign=middle;resizable=0;points=[];autosize=1;" vertex="1" parent="1">
          <mxGeometry x="20" y="990" width="150" height="20" as="geometry" />
        </mxCell>
        <mxCell id="fcYiXY_xP2DARM-IJb6x-81" value="" style="endArrow=classic;html=1;strokeWidth=1;" edge="1" parent="1">
          <mxGeometry width="50" height="50" relative="1" as="geometry">
            <mxPoint x="-220" y="740" as="sourcePoint" />
            <mxPoint y="740" as="targetPoint" />
          </mxGeometry>
        </mxCell>
        <mxCell id="fcYiXY_xP2DARM-IJb6x-82" value="3.1:Confirmarhorario(consulta)" style="text;html=1;align=center;verticalAlign=middle;resizable=0;points=[];autosize=1;" vertex="1" parent="1">
          <mxGeometry x="-210" y="710" width="180" height="20" as="geometry" />
        </mxCell>
      </root>
    </mxGraphModel>
  </diagram>
</mxfile>
